<?xml version="1.0" standalone="no"?>
<!DOCTYPE svg PUBLIC "-//W3C//DTD SVG 20010904//EN"
 "http://www.w3.org/TR/2001/REC-SVG-20010904/DTD/svg10.dtd">
<svg version="1.0" xmlns="http://www.w3.org/2000/svg"
 width="500.000000pt" height="500.000000pt" viewBox="0 0 500.000000 500.000000"
 preserveAspectRatio="xMidYMid meet">
<metadata>
Created by potrace 1.11, written by Peter Selinger 2001-2013
</metadata>
<g transform="translate(0.000000,500.000000) scale(0.100000,-0.100000)"
fill="#000000" stroke="none">
<path d="M3055 4804 c-66 -58 -156 -141 -201 -185 l-81 -81 -109 -18 c-164
-29 -358 -100 -456 -168 -102 -71 -235 -211 -348 -367 -62 -87 -101 -125 -126
-125 -12 0 -44 -16 -70 -35 -27 -20 -89 -55 -139 -80 -49 -24 -125 -68 -168
-98 -110 -76 -282 -232 -368 -334 -41 -47 -129 -146 -196 -218 -68 -72 -146
-161 -175 -197 -29 -36 -91 -94 -138 -129 -86 -64 -340 -308 -340 -327 0 -5
12 -17 26 -27 l26 -17 73 79 c91 98 191 185 182 158 -3 -11 -18 -54 -33 -95
-44 -125 -64 -264 -71 -490 -6 -231 9 -390 52 -540 26 -87 108 -268 162 -353
l31 -48 -5 -163 c-11 -333 46 -616 177 -877 l30 -59 55 0 c30 0 55 2 55 5 0 3
-17 40 -39 83 -118 237 -181 503 -181 768 l0 87 42 -49 c132 -156 329 -327
471 -408 68 -40 58 -26 -21 26 -108 73 -196 157 -348 333 -108 125 -141 177
-236 370 -144 293 -173 431 -165 760 6 209 23 349 58 473 30 109 53 157 121
259 60 90 64 93 167 151 109 62 394 197 437 208 27 7 28 10 13 51 l-10 31
-135 -58 c-74 -32 -159 -72 -189 -88 -30 -17 -55 -28 -55 -25 0 2 33 39 73 81
40 42 107 118 149 167 122 144 291 291 422 367 58 34 72 38 90 29 27 -14 117
-31 166 -31 33 0 44 -7 94 -61 31 -33 56 -68 56 -77 0 -26 -45 -113 -76 -150
-16 -18 -67 -59 -114 -90 -106 -72 -125 -101 -124 -197 3 -187 173 -446 424
-644 401 -317 803 -370 1031 -137 90 91 129 206 129 374 0 122 -17 215 -71
375 -94 286 -289 589 -462 720 -91 69 -155 85 -237 61 -65 -19 -103 -57 -125
-124 -9 -27 -28 -59 -42 -70 -37 -29 -146 -60 -213 -60 -50 0 -60 3 -73 24 -9
13 -43 45 -77 71 l-60 48 0 57 c0 56 1 58 39 83 24 16 85 87 154 179 151 202
231 274 392 355 65 33 285 106 294 98 2 -3 -20 -31 -51 -63 -61 -64 -207 -236
-234 -278 -18 -26 -17 -27 6 -46 12 -10 26 -17 31 -16 4 2 47 50 94 108 89
107 123 145 227 258 l58 62 117 15 c136 17 353 20 353 5 0 -5 -5 -10 -11 -10
-19 0 -279 -144 -386 -213 -112 -73 -278 -203 -341 -269 l-44 -45 28 -22 c34
-26 38 -26 61 2 28 36 179 163 263 222 118 83 250 160 420 245 l156 78 110
-19 c154 -28 384 -108 518 -180 140 -76 314 -207 431 -324 141 -142 387 -471
489 -655 l36 -65 0 45 c0 39 -11 64 -78 175 -232 387 -455 637 -735 822 -211
139 -498 246 -747 277 -19 2 -73 10 -119 16 -54 8 -145 11 -255 8 l-171 -5 55
49 c45 40 243 213 273 238 8 7 -29 60 -41 60 -4 -1 -61 -48 -127 -106z m-545
-1145 c191 -116 423 -489 505 -812 46 -181 41 -348 -13 -454 -29 -56 -91 -114
-159 -148 -51 -26 -70 -30 -164 -33 -86 -3 -121 0 -185 18 -187 51 -389 174
-555 340 -163 162 -254 313 -266 442 l-6 66 48 34 c162 112 207 160 247 263
13 34 20 40 48 41 115 6 218 37 272 82 17 15 46 58 64 98 19 43 40 74 51 77
41 11 80 6 113 -14z"/>
<path d="M1187 2886 c-182 -132 -308 -240 -439 -374 -101 -104 -238 -271 -238
-290 0 -4 13 -15 29 -25 l28 -16 66 87 c147 196 351 383 639 587 l97 69 -20
28 c-11 15 -23 28 -27 28 -4 0 -65 -42 -135 -94z"/>
<path d="M4615 2008 c-2 -7 -13 -121 -25 -253 -26 -300 -36 -381 -62 -524 -20
-108 -23 -116 -68 -170 -88 -106 -103 -163 -44 -169 44 -4 152 25 194 52 23
15 57 25 102 29 67 6 195 50 256 87 28 18 32 25 32 65 0 25 -2 45 -5 45 -3 0
-22 -8 -43 -19 -59 -30 -183 -72 -232 -80 -36 -5 -46 -11 -52 -31 -5 -17 -6
-12 -2 15 5 46 -24 104 -56 112 -14 4 -18 12 -15 27 14 67 46 678 42 809 0 20
-16 23 -22 5z m-60 -868 c-3 -5 -12 -10 -18 -10 -7 0 -6 4 3 10 19 12 23 12
15 0z"/>
<path d="M4128 1586 c-20 -24 -74 -75 -120 -115 -186 -160 -359 -264 -538
-322 l-84 -27 49 -8 c67 -10 203 11 285 43 135 53 275 164 361 287 43 60 96
173 86 182 -2 2 -19 -16 -39 -40z"/>
<path d="M4311 1185 c-52 -36 -107 -76 -122 -91 -25 -24 -34 -26 -121 -27 -51
-1 -178 4 -283 11 -110 8 -230 11 -285 7 -194 -14 -410 -70 -505 -131 -22 -14
-31 -22 -20 -18 74 26 185 54 257 64 115 16 346 14 518 -5 80 -9 195 -18 255
-22 100 -5 113 -4 130 13 15 16 18 16 13 3 -4 -11 2 -25 17 -39 l24 -23 -21
-41 c-47 -93 -130 -208 -218 -299 -105 -110 -193 -180 -292 -232 l-68 -36 -52
16 c-28 8 -77 15 -107 14 l-56 -1 45 -9 c142 -28 255 -136 300 -286 13 -42 14
-43 57 -43 41 0 44 2 37 23 -27 89 -99 197 -160 240 -24 17 -44 34 -44 38 0 4
17 10 38 14 103 19 254 112 389 239 98 92 153 163 198 253 39 77 44 105 18 97
-14 -5 -15 -4 -4 4 8 6 20 8 26 6 35 -14 200 237 193 293 -2 23 -8 28 -33 30
-22 1 -55 -15 -124 -62z m-153 -145 c-7 -10 -14 -17 -17 -15 -4 4 18 35 25 35
2 0 -1 -9 -8 -20z"/>
</g>
</svg>
